<svg xmlns="http://www.w3.org/2000/svg" xmlns:xlink="http://www.w3.org/1999/xlink" width="1200" zoomAndPan="magnify" viewBox="0 0 900 472.499986" height="630" preserveAspectRatio="xMidYMid meet" version="1.0"><defs><g/><clipPath id="11c48c3af5"><path d="M 0.476562 0 L 899.523438 0 L 899.523438 472 L 0.476562 472 Z M 0.476562 0 " clip-rule="nonzero"/></clipPath></defs><g clip-path="url(#11c48c3af5)"><path fill="#ffffff" d="M 0.476562 0 L 899.523438 0 L 899.523438 472 L 0.476562 472 Z M 0.476562 0 " fill-opacity="1" fill-rule="nonzero"/><path fill="#080c10" d="M 0.476562 0 L 899.523438 0 L 899.523438 472 L 0.476562 472 Z M 0.476562 0 " fill-opacity="1" fill-rule="nonzero"/></g><g fill="#ffffff" fill-opacity="1"><g transform="translate(354.95018, 255.479633)"><g><path d="M 3.609375 -14.171875 C 3.609375 -16.253906 3.859375 -18.164062 4.359375 -19.90625 C 4.867188 -21.65625 5.601562 -23.15625 6.5625 -24.40625 C 7.53125 -25.664062 8.703125 -26.644531 10.078125 -27.34375 C 11.453125 -28.050781 13.007812 -28.40625 14.75 -28.40625 C 16.46875 -28.40625 17.972656 -28.097656 19.265625 -27.484375 C 20.566406 -26.878906 21.671875 -26.003906 22.578125 -24.859375 L 22.8125 -27.890625 L 27.140625 -27.890625 L 27.140625 -0.59375 C 27.140625 1.25 26.851562 2.878906 26.28125 4.296875 C 25.707031 5.722656 24.898438 6.9375 23.859375 7.9375 C 22.816406 8.9375 21.570312 9.691406 20.125 10.203125 C 18.6875 10.722656 17.09375 10.984375 15.34375 10.984375 C 14.613281 10.984375 13.785156 10.898438 12.859375 10.734375 C 11.929688 10.578125 10.988281 10.3125 10.03125 9.9375 C 9.082031 9.570312 8.164062 9.078125 7.28125 8.453125 C 6.394531 7.835938 5.632812 7.070312 5 6.15625 L 7.46875 3.296875 C 8.0625 4.003906 8.664062 4.601562 9.28125 5.09375 C 9.894531 5.582031 10.519531 5.972656 11.15625 6.265625 C 11.789062 6.554688 12.425781 6.765625 13.0625 6.890625 C 13.707031 7.023438 14.347656 7.09375 14.984375 7.09375 C 16.109375 7.09375 17.125 6.925781 18.03125 6.59375 C 18.945312 6.269531 19.726562 5.796875 20.375 5.171875 C 21.019531 4.546875 21.515625 3.765625 21.859375 2.828125 C 22.203125 1.898438 22.375 0.835938 22.375 -0.359375 L 22.375 -2.765625 C 21.445312 -1.691406 20.347656 -0.875 19.078125 -0.3125 C 17.816406 0.238281 16.351562 0.515625 14.6875 0.515625 C 12.988281 0.515625 11.453125 0.15625 10.078125 -0.5625 C 8.703125 -1.289062 7.535156 -2.289062 6.578125 -3.5625 C 5.628906 -4.832031 4.894531 -6.328125 4.375 -8.046875 C 3.863281 -9.773438 3.609375 -11.640625 3.609375 -13.640625 Z M 8.375 -13.640625 C 8.375 -12.273438 8.515625 -10.984375 8.796875 -9.765625 C 9.085938 -8.546875 9.535156 -7.472656 10.140625 -6.546875 C 10.753906 -5.617188 11.53125 -4.882812 12.46875 -4.34375 C 13.414062 -3.800781 14.550781 -3.53125 15.875 -3.53125 C 16.707031 -3.53125 17.453125 -3.628906 18.109375 -3.828125 C 18.773438 -4.023438 19.367188 -4.300781 19.890625 -4.65625 C 20.410156 -5.019531 20.875 -5.453125 21.28125 -5.953125 C 21.695312 -6.453125 22.0625 -7.003906 22.375 -7.609375 L 22.375 -20.390625 C 22.0625 -20.972656 21.695312 -21.503906 21.28125 -21.984375 C 20.875 -22.472656 20.40625 -22.890625 19.875 -23.234375 C 19.34375 -23.585938 18.75 -23.863281 18.09375 -24.0625 C 17.445312 -24.257812 16.726562 -24.359375 15.9375 -24.359375 C 14.59375 -24.359375 13.441406 -24.082031 12.484375 -23.53125 C 11.535156 -22.988281 10.753906 -22.25 10.140625 -21.3125 C 9.535156 -20.375 9.085938 -19.289062 8.796875 -18.0625 C 8.515625 -16.832031 8.375 -15.535156 8.375 -14.171875 Z M 8.375 -13.640625 "/></g></g></g><g fill="#ffffff" fill-opacity="1"><g transform="translate(386.63275, 255.479633)"><g><path d="M 5.234375 -39.59375 L 19.484375 -39.59375 L 19.484375 -4.125 L 28.59375 -4.125 L 28.59375 0 L 5.234375 0 L 5.234375 -4.125 L 14.71875 -4.125 L 14.71875 -35.453125 L 5.234375 -35.453125 Z M 5.234375 -39.59375 "/></g></g></g><g fill="#ffffff" fill-opacity="1"><g transform="translate(418.31532, 255.479633)"><g><path d="M 28.015625 -13.640625 C 28.015625 -11.640625 27.773438 -9.773438 27.296875 -8.046875 C 26.816406 -6.328125 26.113281 -4.832031 25.1875 -3.5625 C 24.257812 -2.289062 23.113281 -1.289062 21.75 -0.5625 C 20.382812 0.15625 18.820312 0.515625 17.0625 0.515625 C 15.363281 0.515625 13.863281 0.238281 12.5625 -0.3125 C 11.269531 -0.863281 10.160156 -1.65625 9.234375 -2.6875 L 9.234375 10.71875 L 4.453125 10.71875 L 4.453125 -27.890625 L 8.8125 -27.890625 L 9.046875 -24.859375 C 9.972656 -26.003906 11.09375 -26.878906 12.40625 -27.484375 C 13.726562 -28.097656 15.253906 -28.40625 16.984375 -28.40625 C 18.773438 -28.40625 20.359375 -28.050781 21.734375 -27.34375 C 23.109375 -26.644531 24.257812 -25.664062 25.1875 -24.40625 C 26.113281 -23.15625 26.816406 -21.65625 27.296875 -19.90625 C 27.773438 -18.164062 28.015625 -16.253906 28.015625 -14.171875 Z M 23.25 -14.171875 C 23.25 -15.535156 23.097656 -16.832031 22.796875 -18.0625 C 22.492188 -19.289062 22.03125 -20.375 21.40625 -21.3125 C 20.78125 -22.25 19.984375 -22.988281 19.015625 -23.53125 C 18.054688 -24.082031 16.910156 -24.359375 15.578125 -24.359375 C 14.046875 -24.359375 12.757812 -24 11.71875 -23.28125 C 10.675781 -22.570312 9.847656 -21.660156 9.234375 -20.546875 L 9.234375 -7.109375 C 9.847656 -6.015625 10.671875 -5.117188 11.703125 -4.421875 C 12.734375 -3.722656 14.039062 -3.375 15.625 -3.375 C 16.945312 -3.375 18.085938 -3.648438 19.046875 -4.203125 C 20.015625 -4.765625 20.804688 -5.519531 21.421875 -6.46875 C 22.035156 -7.414062 22.492188 -8.503906 22.796875 -9.734375 C 23.097656 -10.972656 23.25 -12.273438 23.25 -13.640625 Z M 23.25 -14.171875 "/></g></g></g><g fill="#ffffff" fill-opacity="1"><g transform="translate(449.99789, 255.479633)"><g><path d="M 10.046875 -21.0625 L 13.453125 -21.0625 C 14.660156 -21.0625 15.722656 -21.222656 16.640625 -21.546875 C 17.554688 -21.878906 18.328125 -22.328125 18.953125 -22.890625 C 19.585938 -23.460938 20.066406 -24.140625 20.390625 -24.921875 C 20.710938 -25.710938 20.875 -26.582031 20.875 -27.53125 C 20.875 -29.71875 20.316406 -31.363281 19.203125 -32.46875 C 18.085938 -33.570312 16.457031 -34.125 14.3125 -34.125 C 13.289062 -34.125 12.363281 -33.972656 11.53125 -33.671875 C 10.695312 -33.378906 9.984375 -32.945312 9.390625 -32.375 C 8.796875 -31.8125 8.335938 -31.132812 8.015625 -30.34375 C 7.691406 -29.550781 7.53125 -28.664062 7.53125 -27.6875 L 2.734375 -27.6875 C 2.734375 -29.113281 3.007812 -30.457031 3.5625 -31.71875 C 4.125 -32.976562 4.910156 -34.078125 5.921875 -35.015625 C 6.941406 -35.953125 8.160156 -36.691406 9.578125 -37.234375 C 10.992188 -37.773438 12.570312 -38.046875 14.3125 -38.046875 C 15.988281 -38.046875 17.523438 -37.816406 18.921875 -37.359375 C 20.316406 -36.910156 21.507812 -36.238281 22.5 -35.34375 C 23.5 -34.445312 24.273438 -33.335938 24.828125 -32.015625 C 25.378906 -30.691406 25.65625 -29.160156 25.65625 -27.421875 C 25.65625 -26.703125 25.539062 -25.957031 25.3125 -25.1875 C 25.09375 -24.414062 24.75 -23.660156 24.28125 -22.921875 C 23.820312 -22.191406 23.222656 -21.503906 22.484375 -20.859375 C 21.753906 -20.222656 20.882812 -19.6875 19.875 -19.25 C 21.09375 -18.863281 22.109375 -18.347656 22.921875 -17.703125 C 23.742188 -17.066406 24.398438 -16.351562 24.890625 -15.5625 C 25.378906 -14.78125 25.722656 -13.945312 25.921875 -13.0625 C 26.117188 -12.1875 26.21875 -11.320312 26.21875 -10.46875 C 26.21875 -8.71875 25.914062 -7.160156 25.3125 -5.796875 C 24.707031 -4.441406 23.875 -3.296875 22.8125 -2.359375 C 21.75 -1.421875 20.488281 -0.707031 19.03125 -0.21875 C 17.582031 0.269531 16.015625 0.515625 14.328125 0.515625 C 12.679688 0.515625 11.128906 0.285156 9.671875 -0.171875 C 8.222656 -0.640625 6.96875 -1.320312 5.90625 -2.21875 C 4.84375 -3.113281 3.992188 -4.203125 3.359375 -5.484375 C 2.734375 -6.773438 2.421875 -8.25 2.421875 -9.90625 L 7.1875 -9.90625 C 7.1875 -8.925781 7.351562 -8.03125 7.6875 -7.21875 C 8.03125 -6.40625 8.507812 -5.71875 9.125 -5.15625 C 9.738281 -4.59375 10.488281 -4.15625 11.375 -3.84375 C 12.257812 -3.53125 13.242188 -3.375 14.328125 -3.375 C 15.410156 -3.375 16.390625 -3.515625 17.265625 -3.796875 C 18.148438 -4.085938 18.898438 -4.523438 19.515625 -5.109375 C 20.128906 -5.691406 20.601562 -6.414062 20.9375 -7.28125 C 21.28125 -8.144531 21.453125 -9.171875 21.453125 -10.359375 C 21.453125 -11.523438 21.253906 -12.535156 20.859375 -13.390625 C 20.472656 -14.242188 19.929688 -14.953125 19.234375 -15.515625 C 18.546875 -16.085938 17.707031 -16.507812 16.71875 -16.78125 C 15.726562 -17.050781 14.640625 -17.1875 13.453125 -17.1875 L 10.046875 -17.1875 Z M 10.046875 -21.0625 "/></g></g></g><g fill="#4af0c4" fill-opacity="1"><g transform="translate(481.683249, 255.479633)"><g><path d="M 6.671875 -27.890625 L 6.8125 -25.265625 C 7.375 -26.242188 8.113281 -27.007812 9.03125 -27.5625 C 9.957031 -28.113281 11.070312 -28.394531 12.375 -28.40625 C 14.9375 -28.40625 16.644531 -27.410156 17.5 -25.421875 C 18.050781 -26.316406 18.773438 -27.035156 19.671875 -27.578125 C 20.578125 -28.117188 21.675781 -28.394531 22.96875 -28.40625 C 25.007812 -28.40625 26.582031 -27.773438 27.6875 -26.515625 C 28.789062 -25.265625 29.34375 -23.367188 29.34375 -20.828125 L 29.34375 0 L 24.796875 0 L 24.796875 -20.875 C 24.796875 -23.21875 23.722656 -24.378906 21.578125 -24.359375 C 21.015625 -24.359375 20.523438 -24.28125 20.109375 -24.125 C 19.691406 -23.96875 19.347656 -23.753906 19.078125 -23.484375 C 18.804688 -23.222656 18.59375 -22.914062 18.4375 -22.5625 C 18.28125 -22.21875 18.175781 -21.851562 18.125 -21.46875 L 18.125 0 L 13.578125 0 L 13.578125 -20.90625 C 13.578125 -22.019531 13.328125 -22.878906 12.828125 -23.484375 C 12.335938 -24.085938 11.550781 -24.378906 10.46875 -24.359375 C 9.46875 -24.359375 8.691406 -24.160156 8.140625 -23.765625 C 7.597656 -23.367188 7.195312 -22.847656 6.9375 -22.203125 L 6.9375 0 L 2.390625 0 L 2.390625 -27.890625 Z M 6.671875 -27.890625 "/></g></g></g><g fill="#4af0c4" fill-opacity="1"><g transform="translate(513.365819, 255.479633)"><g><path d="M 3.578125 -14.171875 C 3.578125 -16.253906 3.835938 -18.164062 4.359375 -19.90625 C 4.890625 -21.65625 5.640625 -23.15625 6.609375 -24.40625 C 7.578125 -25.664062 8.75 -26.644531 10.125 -27.34375 C 11.5 -28.050781 13.039062 -28.40625 14.75 -28.40625 C 16.414062 -28.40625 17.867188 -28.125 19.109375 -27.5625 C 20.359375 -27.007812 21.4375 -26.203125 22.34375 -25.140625 L 22.34375 -39.59375 L 27.125 -39.59375 L 27.125 0 L 22.734375 0 L 22.53125 -2.9375 C 21.601562 -1.800781 20.492188 -0.941406 19.203125 -0.359375 C 17.910156 0.222656 16.40625 0.515625 14.6875 0.515625 C 13.007812 0.515625 11.484375 0.15625 10.109375 -0.5625 C 8.742188 -1.289062 7.582031 -2.289062 6.625 -3.5625 C 5.664062 -4.832031 4.914062 -6.328125 4.375 -8.046875 C 3.84375 -9.773438 3.578125 -11.640625 3.578125 -13.640625 Z M 8.359375 -13.640625 C 8.359375 -12.273438 8.503906 -10.984375 8.796875 -9.765625 C 9.085938 -8.546875 9.535156 -7.472656 10.140625 -6.546875 C 10.753906 -5.617188 11.53125 -4.882812 12.46875 -4.34375 C 13.414062 -3.800781 14.550781 -3.53125 15.875 -3.53125 C 16.6875 -3.53125 17.414062 -3.625 18.0625 -3.8125 C 18.71875 -4 19.3125 -4.269531 19.84375 -4.625 C 20.382812 -4.976562 20.859375 -5.398438 21.265625 -5.890625 C 21.679688 -6.378906 22.039062 -6.925781 22.34375 -7.53125 L 22.34375 -20.46875 C 21.726562 -21.601562 20.894531 -22.535156 19.84375 -23.265625 C 18.800781 -23.992188 17.5 -24.359375 15.9375 -24.359375 C 14.59375 -24.359375 13.441406 -24.082031 12.484375 -23.53125 C 11.535156 -22.988281 10.753906 -22.25 10.140625 -21.3125 C 9.535156 -20.375 9.085938 -19.289062 8.796875 -18.0625 C 8.503906 -16.832031 8.359375 -15.535156 8.359375 -14.171875 Z M 8.359375 -13.640625 "/></g></g></g><g fill="#ffffff" fill-opacity="1"><g transform="translate(136.140724, 330.70673)"><g><path d="M 15.140625 -17 L 9.25 -17 L 9.25 0 L 6.890625 0 L 6.890625 -17 L 1 -17 L 1 -19.078125 L 15.140625 -19.078125 Z M 15.140625 -17 "/></g></g></g><g fill="#ffffff" fill-opacity="1"><g transform="translate(152.234913, 330.70673)"><g><path d="M 11.5625 -14.4375 C 11.789062 -14.4375 12.023438 -14.425781 12.265625 -14.40625 C 12.515625 -14.394531 12.75 -14.375 12.96875 -14.34375 C 13.195312 -14.320312 13.40625 -14.285156 13.59375 -14.234375 C 13.78125 -14.191406 13.9375 -14.144531 14.0625 -14.09375 L 13.734375 -11.71875 C 13.253906 -11.820312 12.800781 -11.898438 12.375 -11.953125 C 11.957031 -12.003906 11.519531 -12.03125 11.0625 -12.03125 C 9.925781 -12.03125 9.003906 -11.769531 8.296875 -11.25 C 7.597656 -10.738281 7.082031 -10.019531 6.75 -9.09375 L 6.75 0 L 4.3125 0 L 4.3125 -14.171875 L 6.609375 -14.171875 L 6.734375 -11.921875 C 7.304688 -12.703125 7.992188 -13.316406 8.796875 -13.765625 C 9.609375 -14.210938 10.53125 -14.4375 11.5625 -14.4375 Z M 11.5625 -14.4375 "/></g></g></g><g fill="#ffffff" fill-opacity="1"><g transform="translate(168.329102, 330.70673)"><g><path d="M 2.65625 -14.171875 L 9.90625 -14.171875 L 9.90625 -2.09375 L 14.53125 -2.09375 L 14.53125 0 L 2.65625 0 L 2.65625 -2.09375 L 7.484375 -2.09375 L 7.484375 -12.0625 L 2.65625 -12.0625 Z M 7.171875 -17.890625 C 7.171875 -18.296875 7.289062 -18.632812 7.53125 -18.90625 C 7.769531 -19.1875 8.132812 -19.328125 8.625 -19.328125 C 9.101562 -19.328125 9.460938 -19.1875 9.703125 -18.90625 C 9.953125 -18.632812 10.078125 -18.296875 10.078125 -17.890625 C 10.078125 -17.492188 9.953125 -17.164062 9.703125 -16.90625 C 9.460938 -16.644531 9.101562 -16.515625 8.625 -16.515625 C 8.132812 -16.515625 7.769531 -16.644531 7.53125 -16.90625 C 7.289062 -17.164062 7.171875 -17.492188 7.171875 -17.890625 Z M 7.171875 -17.890625 "/></g></g></g><g fill="#ffffff" fill-opacity="1"><g transform="translate(184.423291, 330.70673)"><g><path d="M 14.234375 -6.9375 C 14.234375 -5.914062 14.109375 -4.96875 13.859375 -4.09375 C 13.617188 -3.21875 13.265625 -2.457031 12.796875 -1.8125 C 12.328125 -1.164062 11.742188 -0.65625 11.046875 -0.28125 C 10.359375 0.0820312 9.566406 0.265625 8.671875 0.265625 C 7.804688 0.265625 7.039062 0.125 6.375 -0.15625 C 5.71875 -0.4375 5.15625 -0.835938 4.6875 -1.359375 L 4.6875 5.453125 L 2.265625 5.453125 L 2.265625 -14.171875 L 4.484375 -14.171875 L 4.59375 -12.625 C 5.070312 -13.207031 5.644531 -13.65625 6.3125 -13.96875 C 6.976562 -14.28125 7.75 -14.4375 8.625 -14.4375 C 9.539062 -14.4375 10.347656 -14.253906 11.046875 -13.890625 C 11.742188 -13.535156 12.328125 -13.039062 12.796875 -12.40625 C 13.265625 -11.769531 13.617188 -11.007812 13.859375 -10.125 C 14.109375 -9.238281 14.234375 -8.265625 14.234375 -7.203125 Z M 11.8125 -7.203125 C 11.8125 -7.890625 11.734375 -8.546875 11.578125 -9.171875 C 11.429688 -9.796875 11.195312 -10.347656 10.875 -10.828125 C 10.5625 -11.304688 10.160156 -11.679688 9.671875 -11.953125 C 9.179688 -12.234375 8.59375 -12.375 7.90625 -12.375 C 7.132812 -12.375 6.484375 -12.191406 5.953125 -11.828125 C 5.421875 -11.472656 5 -11.007812 4.6875 -10.4375 L 4.6875 -3.609375 C 5 -3.054688 5.414062 -2.601562 5.9375 -2.25 C 6.46875 -1.894531 7.132812 -1.71875 7.9375 -1.71875 C 8.613281 -1.71875 9.195312 -1.859375 9.6875 -2.140625 C 10.175781 -2.421875 10.578125 -2.800781 10.890625 -3.28125 C 11.203125 -3.769531 11.429688 -4.328125 11.578125 -4.953125 C 11.734375 -5.578125 11.8125 -6.238281 11.8125 -6.9375 Z M 11.8125 -7.203125 "/></g></g></g><g fill="#ffffff" fill-opacity="1"><g transform="translate(200.51748, 330.70673)"><g><path d="M 2.65625 -20.125 L 9.90625 -20.125 L 9.90625 -2.09375 L 14.53125 -2.09375 L 14.53125 0 L 2.65625 0 L 2.65625 -2.09375 L 7.484375 -2.09375 L 7.484375 -18.015625 L 2.65625 -18.015625 Z M 2.65625 -20.125 "/></g></g></g><g fill="#ffffff" fill-opacity="1"><g transform="translate(216.611669, 330.70673)"><g><path d="M 8.546875 0.265625 C 7.546875 0.265625 6.628906 0.09375 5.796875 -0.25 C 4.960938 -0.59375 4.25 -1.066406 3.65625 -1.671875 C 3.0625 -2.285156 2.597656 -3.007812 2.265625 -3.84375 C 1.929688 -4.6875 1.765625 -5.601562 1.765625 -6.59375 L 1.765625 -7.140625 C 1.765625 -8.285156 1.945312 -9.304688 2.3125 -10.203125 C 2.6875 -11.109375 3.175781 -11.875 3.78125 -12.5 C 4.382812 -13.125 5.070312 -13.601562 5.84375 -13.9375 C 6.625 -14.269531 7.421875 -14.4375 8.234375 -14.4375 C 9.253906 -14.4375 10.144531 -14.257812 10.90625 -13.90625 C 11.664062 -13.550781 12.300781 -13.0625 12.8125 -12.4375 C 13.320312 -11.8125 13.695312 -11.070312 13.9375 -10.21875 C 14.1875 -9.375 14.3125 -8.460938 14.3125 -7.484375 L 14.3125 -6.390625 L 4.1875 -6.390625 C 4.21875 -5.742188 4.34375 -5.132812 4.5625 -4.5625 C 4.789062 -4 5.097656 -3.503906 5.484375 -3.078125 C 5.867188 -2.660156 6.332031 -2.328125 6.875 -2.078125 C 7.414062 -1.835938 8.015625 -1.71875 8.671875 -1.71875 C 9.535156 -1.71875 10.300781 -1.890625 10.96875 -2.234375 C 11.644531 -2.585938 12.207031 -3.050781 12.65625 -3.625 L 14.140625 -2.46875 C 13.898438 -2.113281 13.601562 -1.769531 13.25 -1.4375 C 12.894531 -1.113281 12.484375 -0.828125 12.015625 -0.578125 C 11.554688 -0.328125 11.035156 -0.125 10.453125 0.03125 C 9.867188 0.1875 9.234375 0.265625 8.546875 0.265625 Z M 8.234375 -12.4375 C 7.742188 -12.4375 7.28125 -12.347656 6.84375 -12.171875 C 6.40625 -11.992188 6.007812 -11.734375 5.65625 -11.390625 C 5.3125 -11.046875 5.019531 -10.617188 4.78125 -10.109375 C 4.539062 -9.609375 4.367188 -9.035156 4.265625 -8.390625 L 11.890625 -8.390625 L 11.890625 -8.5625 C 11.867188 -9.039062 11.78125 -9.507812 11.625 -9.96875 C 11.46875 -10.425781 11.238281 -10.835938 10.9375 -11.203125 C 10.644531 -11.578125 10.273438 -11.875 9.828125 -12.09375 C 9.378906 -12.320312 8.847656 -12.4375 8.234375 -12.4375 Z M 8.234375 -12.4375 "/></g></g></g><g fill="#ffffff" fill-opacity="1"><g transform="translate(232.705858, 330.70673)"><g/></g></g><g fill="#ffffff" fill-opacity="1"><g transform="translate(248.800047, 330.70673)"><g><path d="M 11.390625 -4.9375 L 5.015625 -4.9375 L 3.484375 0 L 1.0625 0 L 7.21875 -19.078125 L 9.25 -19.078125 L 15.296875 0 L 12.890625 0 Z M 5.671875 -7.046875 L 10.734375 -7.046875 L 8.234375 -15.328125 Z M 5.671875 -7.046875 "/></g></g></g><g fill="#ffffff" fill-opacity="1"><g transform="translate(264.894236, 330.70673)"><g><path d="M 1.828125 -7.203125 C 1.828125 -8.265625 1.957031 -9.238281 2.21875 -10.125 C 2.476562 -11.007812 2.851562 -11.769531 3.34375 -12.40625 C 3.832031 -13.039062 4.425781 -13.535156 5.125 -13.890625 C 5.820312 -14.253906 6.613281 -14.4375 7.5 -14.4375 C 8.363281 -14.4375 9.125 -14.28125 9.78125 -13.96875 C 10.445312 -13.65625 11.007812 -13.207031 11.46875 -12.625 L 11.59375 -14.171875 L 13.796875 -14.171875 L 13.796875 -0.296875 C 13.796875 0.628906 13.648438 1.457031 13.359375 2.1875 C 13.066406 2.914062 12.65625 3.53125 12.125 4.03125 C 11.59375 4.539062 10.957031 4.925781 10.21875 5.1875 C 9.488281 5.445312 8.679688 5.578125 7.796875 5.578125 C 7.429688 5.578125 7.007812 5.535156 6.53125 5.453125 C 6.0625 5.367188 5.582031 5.234375 5.09375 5.046875 C 4.613281 4.859375 4.148438 4.609375 3.703125 4.296875 C 3.253906 3.984375 2.867188 3.59375 2.546875 3.125 L 3.796875 1.671875 C 4.097656 2.035156 4.40625 2.335938 4.71875 2.578125 C 5.03125 2.828125 5.347656 3.023438 5.671875 3.171875 C 5.992188 3.328125 6.316406 3.4375 6.640625 3.5 C 6.960938 3.570312 7.285156 3.609375 7.609375 3.609375 C 8.179688 3.609375 8.695312 3.523438 9.15625 3.359375 C 9.625 3.191406 10.019531 2.945312 10.34375 2.625 C 10.675781 2.300781 10.929688 1.90625 11.109375 1.4375 C 11.285156 0.96875 11.375 0.425781 11.375 -0.1875 L 11.375 -1.40625 C 10.894531 -0.863281 10.332031 -0.445312 9.6875 -0.15625 C 9.050781 0.125 8.3125 0.265625 7.46875 0.265625 C 6.601562 0.265625 5.820312 0.0820312 5.125 -0.28125 C 4.425781 -0.65625 3.832031 -1.164062 3.34375 -1.8125 C 2.863281 -2.457031 2.488281 -3.21875 2.21875 -4.09375 C 1.957031 -4.96875 1.828125 -5.914062 1.828125 -6.9375 Z M 4.25 -6.9375 C 4.25 -6.238281 4.320312 -5.578125 4.46875 -4.953125 C 4.613281 -4.335938 4.84375 -3.796875 5.15625 -3.328125 C 5.46875 -2.859375 5.863281 -2.484375 6.34375 -2.203125 C 6.820312 -1.929688 7.394531 -1.796875 8.0625 -1.796875 C 8.488281 -1.796875 8.867188 -1.84375 9.203125 -1.9375 C 9.535156 -2.039062 9.832031 -2.179688 10.09375 -2.359375 C 10.363281 -2.546875 10.601562 -2.765625 10.8125 -3.015625 C 11.03125 -3.273438 11.21875 -3.554688 11.375 -3.859375 L 11.375 -10.359375 C 11.21875 -10.660156 11.03125 -10.929688 10.8125 -11.171875 C 10.601562 -11.421875 10.363281 -11.632812 10.09375 -11.8125 C 9.820312 -11.988281 9.519531 -12.125 9.1875 -12.21875 C 8.863281 -12.320312 8.5 -12.375 8.09375 -12.375 C 7.414062 -12.375 6.832031 -12.234375 6.34375 -11.953125 C 5.863281 -11.679688 5.46875 -11.304688 5.15625 -10.828125 C 4.84375 -10.347656 4.613281 -9.796875 4.46875 -9.171875 C 4.320312 -8.546875 4.25 -7.890625 4.25 -7.203125 Z M 4.25 -6.9375 "/></g></g></g><g fill="#ffffff" fill-opacity="1"><g transform="translate(280.988425, 330.70673)"><g><path d="M 1.59375 -7.21875 C 1.59375 -8.238281 1.738281 -9.1875 2.03125 -10.0625 C 2.332031 -10.945312 2.757812 -11.710938 3.3125 -12.359375 C 3.875 -13.003906 4.550781 -13.507812 5.34375 -13.875 C 6.132812 -14.25 7.03125 -14.4375 8.03125 -14.4375 C 9.03125 -14.4375 9.929688 -14.25 10.734375 -13.875 C 11.535156 -13.507812 12.210938 -13.003906 12.765625 -12.359375 C 13.316406 -11.710938 13.738281 -10.945312 14.03125 -10.0625 C 14.332031 -9.1875 14.484375 -8.238281 14.484375 -7.21875 L 14.484375 -6.9375 C 14.484375 -5.90625 14.332031 -4.953125 14.03125 -4.078125 C 13.738281 -3.210938 13.316406 -2.457031 12.765625 -1.8125 C 12.210938 -1.164062 11.535156 -0.65625 10.734375 -0.28125 C 9.941406 0.0820312 9.050781 0.265625 8.0625 0.265625 C 7.050781 0.265625 6.144531 0.0820312 5.34375 -0.28125 C 4.550781 -0.65625 3.875 -1.164062 3.3125 -1.8125 C 2.757812 -2.457031 2.332031 -3.210938 2.03125 -4.078125 C 1.738281 -4.953125 1.59375 -5.90625 1.59375 -6.9375 Z M 4.015625 -6.9375 C 4.015625 -6.226562 4.097656 -5.554688 4.265625 -4.921875 C 4.429688 -4.296875 4.679688 -3.742188 5.015625 -3.265625 C 5.359375 -2.785156 5.78125 -2.40625 6.28125 -2.125 C 6.789062 -1.84375 7.382812 -1.703125 8.0625 -1.703125 C 8.71875 -1.703125 9.296875 -1.84375 9.796875 -2.125 C 10.304688 -2.40625 10.726562 -2.785156 11.0625 -3.265625 C 11.394531 -3.742188 11.644531 -4.296875 11.8125 -4.921875 C 11.976562 -5.554688 12.0625 -6.226562 12.0625 -6.9375 L 12.0625 -7.21875 C 12.0625 -7.90625 11.972656 -8.566406 11.796875 -9.203125 C 11.628906 -9.835938 11.378906 -10.394531 11.046875 -10.875 C 10.710938 -11.351562 10.289062 -11.734375 9.78125 -12.015625 C 9.28125 -12.296875 8.695312 -12.4375 8.03125 -12.4375 C 7.351562 -12.4375 6.765625 -12.296875 6.265625 -12.015625 C 5.773438 -11.734375 5.359375 -11.351562 5.015625 -10.875 C 4.679688 -10.394531 4.429688 -9.835938 4.265625 -9.203125 C 4.097656 -8.566406 4.015625 -7.90625 4.015625 -7.21875 Z M 4.015625 -6.9375 "/></g></g></g><g fill="#ffffff" fill-opacity="1"><g transform="translate(297.082614, 330.70673)"><g><path d="M 4.453125 -14.171875 L 4.625 -12.078125 C 5.132812 -12.804688 5.765625 -13.378906 6.515625 -13.796875 C 7.273438 -14.210938 8.113281 -14.425781 9.03125 -14.4375 C 9.78125 -14.4375 10.457031 -14.332031 11.0625 -14.125 C 11.664062 -13.914062 12.179688 -13.585938 12.609375 -13.140625 C 13.035156 -12.691406 13.363281 -12.125 13.59375 -11.4375 C 13.832031 -10.757812 13.953125 -9.945312 13.953125 -9 L 13.953125 0 L 11.53125 0 L 11.53125 -8.953125 C 11.53125 -9.578125 11.457031 -10.109375 11.3125 -10.546875 C 11.175781 -10.984375 10.96875 -11.335938 10.6875 -11.609375 C 10.414062 -11.878906 10.082031 -12.070312 9.6875 -12.1875 C 9.289062 -12.3125 8.832031 -12.375 8.3125 -12.375 C 7.5 -12.375 6.785156 -12.171875 6.171875 -11.765625 C 5.554688 -11.359375 5.066406 -10.828125 4.703125 -10.171875 L 4.703125 0 L 2.28125 0 L 2.28125 -14.171875 Z M 4.453125 -14.171875 "/></g></g></g><g fill="#ffffff" fill-opacity="1"><g transform="translate(313.176803, 330.70673)"><g><path d="M 2.65625 -14.171875 L 9.90625 -14.171875 L 9.90625 -2.09375 L 14.53125 -2.09375 L 14.53125 0 L 2.65625 0 L 2.65625 -2.09375 L 7.484375 -2.09375 L 7.484375 -12.0625 L 2.65625 -12.0625 Z M 7.171875 -17.890625 C 7.171875 -18.296875 7.289062 -18.632812 7.53125 -18.90625 C 7.769531 -19.1875 8.132812 -19.328125 8.625 -19.328125 C 9.101562 -19.328125 9.460938 -19.1875 9.703125 -18.90625 C 9.953125 -18.632812 10.078125 -18.296875 10.078125 -17.890625 C 10.078125 -17.492188 9.953125 -17.164062 9.703125 -16.90625 C 9.460938 -16.644531 9.101562 -16.515625 8.625 -16.515625 C 8.132812 -16.515625 7.769531 -16.644531 7.53125 -16.90625 C 7.289062 -17.164062 7.171875 -17.492188 7.171875 -17.890625 Z M 7.171875 -17.890625 "/></g></g></g><g fill="#ffffff" fill-opacity="1"><g transform="translate(329.270992, 330.70673)"><g><path d="M 11.703125 -3.765625 C 11.703125 -4.046875 11.644531 -4.300781 11.53125 -4.53125 C 11.414062 -4.769531 11.222656 -4.984375 10.953125 -5.171875 C 10.679688 -5.367188 10.320312 -5.546875 9.875 -5.703125 C 9.425781 -5.867188 8.875 -6.015625 8.21875 -6.140625 C 7.40625 -6.304688 6.660156 -6.503906 5.984375 -6.734375 C 5.316406 -6.972656 4.742188 -7.253906 4.265625 -7.578125 C 3.796875 -7.910156 3.429688 -8.296875 3.171875 -8.734375 C 2.910156 -9.179688 2.78125 -9.695312 2.78125 -10.28125 C 2.78125 -10.851562 2.914062 -11.390625 3.1875 -11.890625 C 3.457031 -12.398438 3.835938 -12.84375 4.328125 -13.21875 C 4.816406 -13.59375 5.398438 -13.890625 6.078125 -14.109375 C 6.753906 -14.328125 7.5 -14.4375 8.3125 -14.4375 C 9.175781 -14.4375 9.957031 -14.320312 10.65625 -14.09375 C 11.363281 -13.863281 11.957031 -13.546875 12.4375 -13.140625 C 12.925781 -12.742188 13.304688 -12.273438 13.578125 -11.734375 C 13.847656 -11.203125 13.984375 -10.628906 13.984375 -10.015625 L 11.546875 -10.015625 C 11.546875 -10.316406 11.46875 -10.613281 11.3125 -10.90625 C 11.15625 -11.195312 10.9375 -11.457031 10.65625 -11.6875 C 10.382812 -11.914062 10.046875 -12.097656 9.640625 -12.234375 C 9.242188 -12.367188 8.800781 -12.4375 8.3125 -12.4375 C 7.789062 -12.4375 7.332031 -12.378906 6.9375 -12.265625 C 6.550781 -12.160156 6.226562 -12.007812 5.96875 -11.8125 C 5.71875 -11.625 5.523438 -11.398438 5.390625 -11.140625 C 5.265625 -10.890625 5.203125 -10.628906 5.203125 -10.359375 C 5.203125 -10.078125 5.253906 -9.828125 5.359375 -9.609375 C 5.460938 -9.390625 5.640625 -9.191406 5.890625 -9.015625 C 6.148438 -8.847656 6.492188 -8.691406 6.921875 -8.546875 C 7.359375 -8.410156 7.910156 -8.273438 8.578125 -8.140625 C 9.453125 -7.960938 10.234375 -7.753906 10.921875 -7.515625 C 11.609375 -7.273438 12.1875 -6.984375 12.65625 -6.640625 C 13.132812 -6.304688 13.5 -5.914062 13.75 -5.46875 C 14 -5.03125 14.125 -4.519531 14.125 -3.9375 C 14.125 -3.300781 13.976562 -2.722656 13.6875 -2.203125 C 13.40625 -1.691406 13.007812 -1.253906 12.5 -0.890625 C 12 -0.523438 11.394531 -0.238281 10.6875 -0.03125 C 9.976562 0.164062 9.207031 0.265625 8.375 0.265625 C 7.414062 0.265625 6.554688 0.132812 5.796875 -0.125 C 5.046875 -0.382812 4.410156 -0.722656 3.890625 -1.140625 C 3.378906 -1.566406 2.984375 -2.054688 2.703125 -2.609375 C 2.429688 -3.171875 2.296875 -3.753906 2.296875 -4.359375 L 4.71875 -4.359375 C 4.75 -3.859375 4.878906 -3.4375 5.109375 -3.09375 C 5.347656 -2.757812 5.640625 -2.488281 5.984375 -2.28125 C 6.328125 -2.070312 6.707031 -1.921875 7.125 -1.828125 C 7.539062 -1.742188 7.957031 -1.703125 8.375 -1.703125 C 9.394531 -1.703125 10.203125 -1.890625 10.796875 -2.265625 C 11.390625 -2.640625 11.691406 -3.140625 11.703125 -3.765625 Z M 11.703125 -3.765625 "/></g></g></g><g fill="#ffffff" fill-opacity="1"><g transform="translate(345.365181, 330.70673)"><g><path d="M 8.015625 -17.609375 L 8.015625 -14.171875 L 13.421875 -14.171875 L 13.421875 -12.296875 L 8.015625 -12.296875 L 8.015625 -4.59375 C 8.015625 -4.039062 8.082031 -3.585938 8.21875 -3.234375 C 8.363281 -2.878906 8.554688 -2.59375 8.796875 -2.375 C 9.046875 -2.164062 9.328125 -2.015625 9.640625 -1.921875 C 9.960938 -1.835938 10.300781 -1.796875 10.65625 -1.796875 C 10.925781 -1.796875 11.195312 -1.8125 11.46875 -1.84375 C 11.75 -1.875 12.019531 -1.910156 12.28125 -1.953125 C 12.550781 -1.992188 12.800781 -2.035156 13.03125 -2.078125 C 13.269531 -2.128906 13.460938 -2.175781 13.609375 -2.21875 L 13.953125 -0.5 C 13.753906 -0.375 13.507812 -0.265625 13.21875 -0.171875 C 12.925781 -0.0859375 12.609375 -0.015625 12.265625 0.046875 C 11.929688 0.117188 11.570312 0.171875 11.1875 0.203125 C 10.8125 0.242188 10.4375 0.265625 10.0625 0.265625 C 9.4375 0.265625 8.847656 0.175781 8.296875 0 C 7.753906 -0.1875 7.28125 -0.472656 6.875 -0.859375 C 6.476562 -1.242188 6.160156 -1.742188 5.921875 -2.359375 C 5.691406 -2.972656 5.578125 -3.71875 5.578125 -4.59375 L 5.578125 -12.296875 L 1.859375 -12.296875 L 1.859375 -14.171875 L 5.578125 -14.171875 L 5.578125 -17.609375 Z M 8.015625 -17.609375 "/></g></g></g><g fill="#ffffff" fill-opacity="1"><g transform="translate(361.45937, 330.70673)"><g/></g></g><g fill="#ffffff" fill-opacity="1"><g transform="translate(377.553559, 330.70673)"><g><path d="M 6.609375 -9.546875 C 6.609375 -9.960938 6.734375 -10.3125 6.984375 -10.59375 C 7.234375 -10.875 7.609375 -11.015625 8.109375 -11.015625 C 8.597656 -11.015625 8.96875 -10.875 9.21875 -10.59375 C 9.476562 -10.3125 9.609375 -9.960938 9.609375 -9.546875 C 9.609375 -9.140625 9.476562 -8.796875 9.21875 -8.515625 C 8.96875 -8.242188 8.597656 -8.109375 8.109375 -8.109375 C 7.609375 -8.109375 7.234375 -8.242188 6.984375 -8.515625 C 6.734375 -8.796875 6.609375 -9.140625 6.609375 -9.546875 Z M 6.609375 -9.546875 "/></g></g></g><g fill="#ffffff" fill-opacity="1"><g transform="translate(393.647748, 330.70673)"><g/></g></g><g fill="#4af0c4" fill-opacity="1"><g transform="translate(409.753511, 330.70673)"><g><path d="M 14.625 -2.5 C 13.820312 -1.5625 12.898438 -0.863281 11.859375 -0.40625 C 10.816406 0.0507812 9.675781 0.273438 8.4375 0.265625 C 7.644531 0.253906 6.921875 0.132812 6.265625 -0.09375 C 5.609375 -0.332031 5.015625 -0.648438 4.484375 -1.046875 C 3.960938 -1.453125 3.503906 -1.929688 3.109375 -2.484375 C 2.722656 -3.035156 2.394531 -3.628906 2.125 -4.265625 C 1.863281 -4.910156 1.664062 -5.582031 1.53125 -6.28125 C 1.394531 -6.988281 1.320312 -7.703125 1.3125 -8.421875 L 1.3125 -10.640625 C 1.320312 -11.347656 1.382812 -12.050781 1.5 -12.75 C 1.613281 -13.457031 1.789062 -14.132812 2.03125 -14.78125 C 2.28125 -15.425781 2.585938 -16.023438 2.953125 -16.578125 C 3.328125 -17.128906 3.769531 -17.609375 4.28125 -18.015625 C 4.789062 -18.421875 5.367188 -18.738281 6.015625 -18.96875 C 6.660156 -19.207031 7.382812 -19.328125 8.1875 -19.328125 C 9.082031 -19.328125 9.90625 -19.191406 10.65625 -18.921875 C 11.40625 -18.648438 12.054688 -18.257812 12.609375 -17.75 C 13.171875 -17.238281 13.617188 -16.617188 13.953125 -15.890625 C 14.296875 -15.171875 14.507812 -14.367188 14.59375 -13.484375 L 12.203125 -13.484375 C 12.097656 -14.035156 11.945312 -14.539062 11.75 -15 C 11.550781 -15.46875 11.285156 -15.867188 10.953125 -16.203125 C 10.628906 -16.535156 10.238281 -16.796875 9.78125 -16.984375 C 9.332031 -17.171875 8.804688 -17.265625 8.203125 -17.265625 C 7.617188 -17.265625 7.101562 -17.164062 6.65625 -16.96875 C 6.21875 -16.769531 5.832031 -16.503906 5.5 -16.171875 C 5.164062 -15.847656 4.890625 -15.460938 4.671875 -15.015625 C 4.453125 -14.578125 4.273438 -14.113281 4.140625 -13.625 C 4.003906 -13.132812 3.90625 -12.632812 3.84375 -12.125 C 3.78125 -11.625 3.75 -11.132812 3.75 -10.65625 L 3.75 -8.421875 C 3.757812 -7.941406 3.800781 -7.445312 3.875 -6.9375 C 3.945312 -6.425781 4.0625 -5.925781 4.21875 -5.4375 C 4.375 -4.945312 4.570312 -4.484375 4.8125 -4.046875 C 5.0625 -3.609375 5.359375 -3.222656 5.703125 -2.890625 C 6.046875 -2.554688 6.441406 -2.289062 6.890625 -2.09375 C 7.347656 -1.90625 7.867188 -1.804688 8.453125 -1.796875 C 8.785156 -1.785156 9.128906 -1.796875 9.484375 -1.828125 C 9.847656 -1.867188 10.203125 -1.941406 10.546875 -2.046875 C 10.890625 -2.148438 11.207031 -2.289062 11.5 -2.46875 C 11.800781 -2.644531 12.050781 -2.878906 12.25 -3.171875 L 12.28125 -7.453125 L 8.390625 -7.453125 L 8.390625 -9.5 L 14.578125 -9.5 Z M 14.625 -2.5 "/></g></g></g><g fill="#4af0c4" fill-opacity="1"><g transform="translate(425.8477, 330.70673)"><g><path d="M 5.015625 -2.0625 L 14.34375 -2.0625 L 14.34375 0 L 2.59375 0 L 2.59375 -19.078125 L 5.015625 -19.078125 Z M 5.015625 -2.0625 "/></g></g></g><g fill="#4af0c4" fill-opacity="1"><g transform="translate(441.941889, 330.70673)"><g><path d="M 4.921875 -7.65625 L 4.921875 0 L 2.5 0 L 2.5 -19.078125 L 8.6875 -19.078125 C 9.539062 -19.054688 10.347656 -18.914062 11.109375 -18.65625 C 11.878906 -18.40625 12.550781 -18.039062 13.125 -17.5625 C 13.695312 -17.082031 14.148438 -16.488281 14.484375 -15.78125 C 14.828125 -15.070312 15 -14.257812 15 -13.34375 C 15 -12.425781 14.828125 -11.613281 14.484375 -10.90625 C 14.148438 -10.207031 13.695312 -9.617188 13.125 -9.140625 C 12.550781 -8.660156 11.878906 -8.289062 11.109375 -8.03125 C 10.347656 -7.78125 9.539062 -7.65625 8.6875 -7.65625 Z M 4.921875 -9.640625 L 8.6875 -9.640625 C 9.25 -9.648438 9.765625 -9.738281 10.234375 -9.90625 C 10.703125 -10.082031 11.109375 -10.328125 11.453125 -10.640625 C 11.804688 -10.953125 12.082031 -11.332031 12.28125 -11.78125 C 12.476562 -12.226562 12.578125 -12.742188 12.578125 -13.328125 C 12.578125 -13.898438 12.476562 -14.414062 12.28125 -14.875 C 12.082031 -15.34375 11.8125 -15.738281 11.46875 -16.0625 C 11.125 -16.382812 10.710938 -16.628906 10.234375 -16.796875 C 9.765625 -16.972656 9.25 -17.066406 8.6875 -17.078125 L 4.921875 -17.078125 Z M 4.921875 -9.640625 "/></g></g></g><g fill="#4af0c4" fill-opacity="1"><g transform="translate(458.036078, 330.70673)"><g><path d="M 12.875 -7.34375 L 2.859375 -7.34375 L 2.859375 -9.34375 L 12.875 -9.34375 Z M 12.875 -7.34375 "/></g></g></g><g fill="#4af0c4" fill-opacity="1"><g transform="translate(474.143357, 330.70673)"><g><path d="M 10.140625 0 L 7.71875 0 L 7.71875 -15.984375 L 2.71875 -14.078125 L 2.71875 -16.296875 L 9.9375 -19.078125 L 10.140625 -19.078125 Z M 10.140625 0 "/></g></g></g><g fill="#4af0c4" fill-opacity="1"><g transform="translate(490.237546, 330.70673)"><g/></g></g><g fill="#4af0c4" fill-opacity="1"><g transform="translate(506.331735, 330.70673)"><g><path d="M 9.296875 -10.234375 L 14.625 -10.234375 L 14.625 -7.828125 L 9.296875 -7.828125 L 9.296875 -1.90625 L 6.875 -1.90625 L 6.875 -7.828125 L 1.5625 -7.828125 L 1.5625 -10.234375 L 6.875 -10.234375 L 6.875 -15.796875 L 9.296875 -15.796875 Z M 9.296875 -10.234375 "/></g></g></g><g fill="#4af0c4" fill-opacity="1"><g transform="translate(522.425924, 330.70673)"><g/></g></g><g fill="#4af0c4" fill-opacity="1"><g transform="translate(538.520113, 330.70673)"><g><path d="M 14.625 -2.5 C 13.820312 -1.5625 12.898438 -0.863281 11.859375 -0.40625 C 10.816406 0.0507812 9.675781 0.273438 8.4375 0.265625 C 7.644531 0.253906 6.921875 0.132812 6.265625 -0.09375 C 5.609375 -0.332031 5.015625 -0.648438 4.484375 -1.046875 C 3.960938 -1.453125 3.503906 -1.929688 3.109375 -2.484375 C 2.722656 -3.035156 2.394531 -3.628906 2.125 -4.265625 C 1.863281 -4.910156 1.664062 -5.582031 1.53125 -6.28125 C 1.394531 -6.988281 1.320312 -7.703125 1.3125 -8.421875 L 1.3125 -10.640625 C 1.320312 -11.347656 1.382812 -12.050781 1.5 -12.75 C 1.613281 -13.457031 1.789062 -14.132812 2.03125 -14.78125 C 2.28125 -15.425781 2.585938 -16.023438 2.953125 -16.578125 C 3.328125 -17.128906 3.769531 -17.609375 4.28125 -18.015625 C 4.789062 -18.421875 5.367188 -18.738281 6.015625 -18.96875 C 6.660156 -19.207031 7.382812 -19.328125 8.1875 -19.328125 C 9.082031 -19.328125 9.90625 -19.191406 10.65625 -18.921875 C 11.40625 -18.648438 12.054688 -18.257812 12.609375 -17.75 C 13.171875 -17.238281 13.617188 -16.617188 13.953125 -15.890625 C 14.296875 -15.171875 14.507812 -14.367188 14.59375 -13.484375 L 12.203125 -13.484375 C 12.097656 -14.035156 11.945312 -14.539062 11.75 -15 C 11.550781 -15.46875 11.285156 -15.867188 10.953125 -16.203125 C 10.628906 -16.535156 10.238281 -16.796875 9.78125 -16.984375 C 9.332031 -17.171875 8.804688 -17.265625 8.203125 -17.265625 C 7.617188 -17.265625 7.101562 -17.164062 6.65625 -16.96875 C 6.21875 -16.769531 5.832031 -16.503906 5.5 -16.171875 C 5.164062 -15.847656 4.890625 -15.460938 4.671875 -15.015625 C 4.453125 -14.578125 4.273438 -14.113281 4.140625 -13.625 C 4.003906 -13.132812 3.90625 -12.632812 3.84375 -12.125 C 3.78125 -11.625 3.75 -11.132812 3.75 -10.65625 L 3.75 -8.421875 C 3.757812 -7.941406 3.800781 -7.445312 3.875 -6.9375 C 3.945312 -6.425781 4.0625 -5.925781 4.21875 -5.4375 C 4.375 -4.945312 4.570312 -4.484375 4.8125 -4.046875 C 5.0625 -3.609375 5.359375 -3.222656 5.703125 -2.890625 C 6.046875 -2.554688 6.441406 -2.289062 6.890625 -2.09375 C 7.347656 -1.90625 7.867188 -1.804688 8.453125 -1.796875 C 8.785156 -1.785156 9.128906 -1.796875 9.484375 -1.828125 C 9.847656 -1.867188 10.203125 -1.941406 10.546875 -2.046875 C 10.890625 -2.148438 11.207031 -2.289062 11.5 -2.46875 C 11.800781 -2.644531 12.050781 -2.878906 12.25 -3.171875 L 12.28125 -7.453125 L 8.390625 -7.453125 L 8.390625 -9.5 L 14.578125 -9.5 Z M 14.625 -2.5 "/></g></g></g><g fill="#4af0c4" fill-opacity="1"><g transform="translate(554.614302, 330.70673)"><g><path d="M 2.28125 -19.078125 L 13.8125 -19.078125 L 13.8125 -16.96875 L 9.234375 -16.96875 L 9.234375 -2.09375 L 13.8125 -2.09375 L 13.8125 0 L 2.28125 0 L 2.28125 -2.09375 L 6.75 -2.09375 L 6.75 -16.96875 L 2.28125 -16.96875 Z M 2.28125 -19.078125 "/></g></g></g><g fill="#4af0c4" fill-opacity="1"><g transform="translate(570.708491, 330.70673)"><g><path d="M 4.921875 -7.65625 L 4.921875 0 L 2.5 0 L 2.5 -19.078125 L 8.6875 -19.078125 C 9.539062 -19.054688 10.347656 -18.914062 11.109375 -18.65625 C 11.878906 -18.40625 12.550781 -18.039062 13.125 -17.5625 C 13.695312 -17.082031 14.148438 -16.488281 14.484375 -15.78125 C 14.828125 -15.070312 15 -14.257812 15 -13.34375 C 15 -12.425781 14.828125 -11.613281 14.484375 -10.90625 C 14.148438 -10.207031 13.695312 -9.617188 13.125 -9.140625 C 12.550781 -8.660156 11.878906 -8.289062 11.109375 -8.03125 C 10.347656 -7.78125 9.539062 -7.65625 8.6875 -7.65625 Z M 4.921875 -9.640625 L 8.6875 -9.640625 C 9.25 -9.648438 9.765625 -9.738281 10.234375 -9.90625 C 10.703125 -10.082031 11.109375 -10.328125 11.453125 -10.640625 C 11.804688 -10.953125 12.082031 -11.332031 12.28125 -11.78125 C 12.476562 -12.226562 12.578125 -12.742188 12.578125 -13.328125 C 12.578125 -13.898438 12.476562 -14.414062 12.28125 -14.875 C 12.082031 -15.34375 11.8125 -15.738281 11.46875 -16.0625 C 11.125 -16.382812 10.710938 -16.628906 10.234375 -16.796875 C 9.765625 -16.972656 9.25 -17.066406 8.6875 -17.078125 L 4.921875 -17.078125 Z M 4.921875 -9.640625 "/></g></g></g><g fill="#4af0c4" fill-opacity="1"><g transform="translate(586.80268, 330.70673)"><g/></g></g><g fill="#4af0c4" fill-opacity="1"><g transform="translate(602.896857, 330.70673)"><g><path d="M 9.296875 -10.234375 L 14.625 -10.234375 L 14.625 -7.828125 L 9.296875 -7.828125 L 9.296875 -1.90625 L 6.875 -1.90625 L 6.875 -7.828125 L 1.5625 -7.828125 L 1.5625 -10.234375 L 6.875 -10.234375 L 6.875 -15.796875 L 9.296875 -15.796875 Z M 9.296875 -10.234375 "/></g></g></g><g fill="#4af0c4" fill-opacity="1"><g transform="translate(618.991046, 330.70673)"><g/></g></g><g fill="#4af0c4" fill-opacity="1"><g transform="translate(635.085235, 330.70673)"><g><path d="M 14.625 -2.5 C 13.820312 -1.5625 12.898438 -0.863281 11.859375 -0.40625 C 10.816406 0.0507812 9.675781 0.273438 8.4375 0.265625 C 7.644531 0.253906 6.921875 0.132812 6.265625 -0.09375 C 5.609375 -0.332031 5.015625 -0.648438 4.484375 -1.046875 C 3.960938 -1.453125 3.503906 -1.929688 3.109375 -2.484375 C 2.722656 -3.035156 2.394531 -3.628906 2.125 -4.265625 C 1.863281 -4.910156 1.664062 -5.582031 1.53125 -6.28125 C 1.394531 -6.988281 1.320312 -7.703125 1.3125 -8.421875 L 1.3125 -10.640625 C 1.320312 -11.347656 1.382812 -12.050781 1.5 -12.75 C 1.613281 -13.457031 1.789062 -14.132812 2.03125 -14.78125 C 2.28125 -15.425781 2.585938 -16.023438 2.953125 -16.578125 C 3.328125 -17.128906 3.769531 -17.609375 4.28125 -18.015625 C 4.789062 -18.421875 5.367188 -18.738281 6.015625 -18.96875 C 6.660156 -19.207031 7.382812 -19.328125 8.1875 -19.328125 C 9.082031 -19.328125 9.90625 -19.191406 10.65625 -18.921875 C 11.40625 -18.648438 12.054688 -18.257812 12.609375 -17.75 C 13.171875 -17.238281 13.617188 -16.617188 13.953125 -15.890625 C 14.296875 -15.171875 14.507812 -14.367188 14.59375 -13.484375 L 12.203125 -13.484375 C 12.097656 -14.035156 11.945312 -14.539062 11.75 -15 C 11.550781 -15.46875 11.285156 -15.867188 10.953125 -16.203125 C 10.628906 -16.535156 10.238281 -16.796875 9.78125 -16.984375 C 9.332031 -17.171875 8.804688 -17.265625 8.203125 -17.265625 C 7.617188 -17.265625 7.101562 -17.164062 6.65625 -16.96875 C 6.21875 -16.769531 5.832031 -16.503906 5.5 -16.171875 C 5.164062 -15.847656 4.890625 -15.460938 4.671875 -15.015625 C 4.453125 -14.578125 4.273438 -14.113281 4.140625 -13.625 C 4.003906 -13.132812 3.90625 -12.632812 3.84375 -12.125 C 3.78125 -11.625 3.75 -11.132812 3.75 -10.65625 L 3.75 -8.421875 C 3.757812 -7.941406 3.800781 -7.445312 3.875 -6.9375 C 3.945312 -6.425781 4.0625 -5.925781 4.21875 -5.4375 C 4.375 -4.945312 4.570312 -4.484375 4.8125 -4.046875 C 5.0625 -3.609375 5.359375 -3.222656 5.703125 -2.890625 C 6.046875 -2.554688 6.441406 -2.289062 6.890625 -2.09375 C 7.347656 -1.90625 7.867188 -1.804688 8.453125 -1.796875 C 8.785156 -1.785156 9.128906 -1.796875 9.484375 -1.828125 C 9.847656 -1.867188 10.203125 -1.941406 10.546875 -2.046875 C 10.890625 -2.148438 11.207031 -2.289062 11.5 -2.46875 C 11.800781 -2.644531 12.050781 -2.878906 12.25 -3.171875 L 12.28125 -7.453125 L 8.390625 -7.453125 L 8.390625 -9.5 L 14.578125 -9.5 Z M 14.625 -2.5 "/></g></g></g><g fill="#4af0c4" fill-opacity="1"><g transform="translate(651.179424, 330.70673)"><g><path d="M 2.65625 -20.125 L 9.90625 -20.125 L 9.90625 -2.09375 L 14.53125 -2.09375 L 14.53125 0 L 2.65625 0 L 2.65625 -2.09375 L 7.484375 -2.09375 L 7.484375 -18.015625 L 2.65625 -18.015625 Z M 2.65625 -20.125 "/></g></g></g><g fill="#4af0c4" fill-opacity="1"><g transform="translate(667.273613, 330.70673)"><g><path d="M 11.46875 -1.953125 C 11 -1.253906 10.410156 -0.707031 9.703125 -0.3125 C 8.992188 0.0703125 8.175781 0.265625 7.25 0.265625 C 6.507812 0.265625 5.835938 0.148438 5.234375 -0.078125 C 4.640625 -0.316406 4.125 -0.679688 3.6875 -1.171875 C 3.257812 -1.660156 2.929688 -2.28125 2.703125 -3.03125 C 2.472656 -3.789062 2.359375 -4.695312 2.359375 -5.75 L 2.359375 -14.171875 L 4.78125 -14.171875 L 4.78125 -5.71875 C 4.78125 -4.957031 4.835938 -4.320312 4.953125 -3.8125 C 5.078125 -3.300781 5.257812 -2.894531 5.5 -2.59375 C 5.75 -2.289062 6.050781 -2.078125 6.40625 -1.953125 C 6.757812 -1.835938 7.171875 -1.78125 7.640625 -1.78125 C 8.628906 -1.78125 9.425781 -1.976562 10.03125 -2.375 C 10.632812 -2.78125 11.085938 -3.328125 11.390625 -4.015625 L 11.390625 -14.171875 L 13.8125 -14.171875 L 13.8125 0 L 11.625 0 Z M 11.46875 -1.953125 "/></g></g></g><g fill="#4af0c4" fill-opacity="1"><g transform="translate(683.367802, 330.70673)"><g><path d="M 8.3125 -1.703125 C 8.75 -1.703125 9.175781 -1.769531 9.59375 -1.90625 C 10.007812 -2.050781 10.378906 -2.25 10.703125 -2.5 C 11.023438 -2.75 11.285156 -3.039062 11.484375 -3.375 C 11.679688 -3.707031 11.785156 -4.070312 11.796875 -4.46875 L 14.078125 -4.46875 C 14.066406 -3.84375 13.898438 -3.242188 13.578125 -2.671875 C 13.265625 -2.097656 12.84375 -1.59375 12.3125 -1.15625 C 11.78125 -0.726562 11.164062 -0.382812 10.46875 -0.125 C 9.78125 0.132812 9.0625 0.265625 8.3125 0.265625 C 7.238281 0.265625 6.300781 0.0703125 5.5 -0.3125 C 4.695312 -0.695312 4.023438 -1.210938 3.484375 -1.859375 C 2.953125 -2.515625 2.550781 -3.265625 2.28125 -4.109375 C 2.007812 -4.960938 1.875 -5.863281 1.875 -6.8125 L 1.875 -7.359375 C 1.875 -8.296875 2.007812 -9.191406 2.28125 -10.046875 C 2.550781 -10.898438 2.953125 -11.648438 3.484375 -12.296875 C 4.023438 -12.953125 4.695312 -13.472656 5.5 -13.859375 C 6.300781 -14.242188 7.238281 -14.4375 8.3125 -14.4375 C 9.15625 -14.4375 9.925781 -14.300781 10.625 -14.03125 C 11.332031 -13.769531 11.941406 -13.410156 12.453125 -12.953125 C 12.960938 -12.492188 13.359375 -11.945312 13.640625 -11.3125 C 13.929688 -10.6875 14.078125 -10.015625 14.078125 -9.296875 L 11.796875 -9.296875 C 11.785156 -9.722656 11.6875 -10.125 11.5 -10.5 C 11.320312 -10.882812 11.082031 -11.222656 10.78125 -11.515625 C 10.476562 -11.804688 10.113281 -12.03125 9.6875 -12.1875 C 9.257812 -12.351562 8.800781 -12.4375 8.3125 -12.4375 C 7.5625 -12.4375 6.929688 -12.285156 6.421875 -11.984375 C 5.910156 -11.691406 5.5 -11.300781 5.1875 -10.8125 C 4.875 -10.332031 4.648438 -9.789062 4.515625 -9.1875 C 4.378906 -8.582031 4.3125 -7.972656 4.3125 -7.359375 L 4.3125 -6.8125 C 4.3125 -6.1875 4.378906 -5.570312 4.515625 -4.96875 C 4.648438 -4.363281 4.867188 -3.816406 5.171875 -3.328125 C 5.484375 -2.847656 5.894531 -2.457031 6.40625 -2.15625 C 6.914062 -1.851562 7.550781 -1.703125 8.3125 -1.703125 Z M 8.3125 -1.703125 "/></g></g></g><g fill="#4af0c4" fill-opacity="1"><g transform="translate(699.461991, 330.70673)"><g><path d="M 11.59375 0 C 11.5 -0.1875 11.421875 -0.414062 11.359375 -0.6875 C 11.304688 -0.957031 11.265625 -1.242188 11.234375 -1.546875 C 10.992188 -1.296875 10.722656 -1.0625 10.421875 -0.84375 C 10.117188 -0.632812 9.785156 -0.445312 9.421875 -0.28125 C 9.054688 -0.113281 8.671875 0.015625 8.265625 0.109375 C 7.859375 0.210938 7.421875 0.265625 6.953125 0.265625 C 6.203125 0.265625 5.523438 0.15625 4.921875 -0.0625 C 4.316406 -0.28125 3.800781 -0.570312 3.375 -0.9375 C 2.945312 -1.3125 2.617188 -1.753906 2.390625 -2.265625 C 2.160156 -2.785156 2.046875 -3.34375 2.046875 -3.9375 C 2.046875 -4.707031 2.195312 -5.382812 2.5 -5.96875 C 2.8125 -6.550781 3.25 -7.035156 3.8125 -7.421875 C 4.382812 -7.816406 5.070312 -8.109375 5.875 -8.296875 C 6.675781 -8.492188 7.566406 -8.59375 8.546875 -8.59375 L 11.203125 -8.59375 L 11.203125 -9.703125 C 11.203125 -10.128906 11.125 -10.515625 10.96875 -10.859375 C 10.8125 -11.203125 10.585938 -11.492188 10.296875 -11.734375 C 10.003906 -11.972656 9.648438 -12.15625 9.234375 -12.28125 C 8.828125 -12.414062 8.363281 -12.484375 7.84375 -12.484375 C 7.363281 -12.484375 6.929688 -12.421875 6.546875 -12.296875 C 6.171875 -12.179688 5.851562 -12.019531 5.59375 -11.8125 C 5.332031 -11.613281 5.128906 -11.375 4.984375 -11.09375 C 4.835938 -10.820312 4.765625 -10.539062 4.765625 -10.25 L 2.328125 -10.25 C 2.335938 -10.757812 2.472656 -11.265625 2.734375 -11.765625 C 2.992188 -12.265625 3.363281 -12.710938 3.84375 -13.109375 C 4.332031 -13.503906 4.921875 -13.820312 5.609375 -14.0625 C 6.304688 -14.3125 7.097656 -14.4375 7.984375 -14.4375 C 8.785156 -14.4375 9.53125 -14.335938 10.21875 -14.140625 C 10.90625 -13.941406 11.5 -13.644531 12 -13.25 C 12.507812 -12.851562 12.90625 -12.359375 13.1875 -11.765625 C 13.476562 -11.171875 13.625 -10.476562 13.625 -9.6875 L 13.625 -3.09375 C 13.625 -2.625 13.664062 -2.125 13.75 -1.59375 C 13.84375 -1.0625 13.96875 -0.597656 14.125 -0.203125 L 14.125 0 Z M 7.3125 -1.84375 C 7.78125 -1.84375 8.21875 -1.90625 8.625 -2.03125 C 9.039062 -2.15625 9.414062 -2.316406 9.75 -2.515625 C 10.082031 -2.710938 10.367188 -2.941406 10.609375 -3.203125 C 10.859375 -3.460938 11.054688 -3.734375 11.203125 -4.015625 L 11.203125 -6.875 L 8.953125 -6.875 C 7.535156 -6.875 6.429688 -6.664062 5.640625 -6.25 C 4.859375 -5.832031 4.46875 -5.171875 4.46875 -4.265625 C 4.46875 -3.921875 4.523438 -3.597656 4.640625 -3.296875 C 4.765625 -3.003906 4.941406 -2.75 5.171875 -2.53125 C 5.410156 -2.320312 5.707031 -2.15625 6.0625 -2.03125 C 6.425781 -1.90625 6.84375 -1.84375 7.3125 -1.84375 Z M 7.3125 -1.84375 "/></g></g></g><g fill="#4af0c4" fill-opacity="1"><g transform="translate(715.55618, 330.70673)"><g><path d="M 1.828125 -7.203125 C 1.828125 -8.265625 1.957031 -9.238281 2.21875 -10.125 C 2.476562 -11.007812 2.851562 -11.769531 3.34375 -12.40625 C 3.832031 -13.039062 4.425781 -13.535156 5.125 -13.890625 C 5.820312 -14.253906 6.613281 -14.4375 7.5 -14.4375 C 8.363281 -14.4375 9.125 -14.28125 9.78125 -13.96875 C 10.445312 -13.65625 11.007812 -13.207031 11.46875 -12.625 L 11.59375 -14.171875 L 13.796875 -14.171875 L 13.796875 -0.296875 C 13.796875 0.628906 13.648438 1.457031 13.359375 2.1875 C 13.066406 2.914062 12.65625 3.53125 12.125 4.03125 C 11.59375 4.539062 10.957031 4.925781 10.21875 5.1875 C 9.488281 5.445312 8.679688 5.578125 7.796875 5.578125 C 7.429688 5.578125 7.007812 5.535156 6.53125 5.453125 C 6.0625 5.367188 5.582031 5.234375 5.09375 5.046875 C 4.613281 4.859375 4.148438 4.609375 3.703125 4.296875 C 3.253906 3.984375 2.867188 3.59375 2.546875 3.125 L 3.796875 1.671875 C 4.097656 2.035156 4.40625 2.335938 4.71875 2.578125 C 5.03125 2.828125 5.347656 3.023438 5.671875 3.171875 C 5.992188 3.328125 6.316406 3.4375 6.640625 3.5 C 6.960938 3.570312 7.285156 3.609375 7.609375 3.609375 C 8.179688 3.609375 8.695312 3.523438 9.15625 3.359375 C 9.625 3.191406 10.019531 2.945312 10.34375 2.625 C 10.675781 2.300781 10.929688 1.90625 11.109375 1.4375 C 11.285156 0.96875 11.375 0.425781 11.375 -0.1875 L 11.375 -1.40625 C 10.894531 -0.863281 10.332031 -0.445312 9.6875 -0.15625 C 9.050781 0.125 8.3125 0.265625 7.46875 0.265625 C 6.601562 0.265625 5.820312 0.0820312 5.125 -0.28125 C 4.425781 -0.65625 3.832031 -1.164062 3.34375 -1.8125 C 2.863281 -2.457031 2.488281 -3.21875 2.21875 -4.09375 C 1.957031 -4.96875 1.828125 -5.914062 1.828125 -6.9375 Z M 4.25 -6.9375 C 4.25 -6.238281 4.320312 -5.578125 4.46875 -4.953125 C 4.613281 -4.335938 4.84375 -3.796875 5.15625 -3.328125 C 5.46875 -2.859375 5.863281 -2.484375 6.34375 -2.203125 C 6.820312 -1.929688 7.394531 -1.796875 8.0625 -1.796875 C 8.488281 -1.796875 8.867188 -1.84375 9.203125 -1.9375 C 9.535156 -2.039062 9.832031 -2.179688 10.09375 -2.359375 C 10.363281 -2.546875 10.601562 -2.765625 10.8125 -3.015625 C 11.03125 -3.273438 11.21875 -3.554688 11.375 -3.859375 L 11.375 -10.359375 C 11.21875 -10.660156 11.03125 -10.929688 10.8125 -11.171875 C 10.601562 -11.421875 10.363281 -11.632812 10.09375 -11.8125 C 9.820312 -11.988281 9.519531 -12.125 9.1875 -12.21875 C 8.863281 -12.320312 8.5 -12.375 8.09375 -12.375 C 7.414062 -12.375 6.832031 -12.234375 6.34375 -11.953125 C 5.863281 -11.679688 5.46875 -11.304688 5.15625 -10.828125 C 4.84375 -10.347656 4.613281 -9.796875 4.46875 -9.171875 C 4.320312 -8.546875 4.25 -7.890625 4.25 -7.203125 Z M 4.25 -6.9375 "/></g></g></g><g fill="#4af0c4" fill-opacity="1"><g transform="translate(731.650369, 330.70673)"><g><path d="M 1.59375 -7.21875 C 1.59375 -8.238281 1.738281 -9.1875 2.03125 -10.0625 C 2.332031 -10.945312 2.757812 -11.710938 3.3125 -12.359375 C 3.875 -13.003906 4.550781 -13.507812 5.34375 -13.875 C 6.132812 -14.25 7.03125 -14.4375 8.03125 -14.4375 C 9.03125 -14.4375 9.929688 -14.25 10.734375 -13.875 C 11.535156 -13.507812 12.210938 -13.003906 12.765625 -12.359375 C 13.316406 -11.710938 13.738281 -10.945312 14.03125 -10.0625 C 14.332031 -9.1875 14.484375 -8.238281 14.484375 -7.21875 L 14.484375 -6.9375 C 14.484375 -5.90625 14.332031 -4.953125 14.03125 -4.078125 C 13.738281 -3.210938 13.316406 -2.457031 12.765625 -1.8125 C 12.210938 -1.164062 11.535156 -0.65625 10.734375 -0.28125 C 9.941406 0.0820312 9.050781 0.265625 8.0625 0.265625 C 7.050781 0.265625 6.144531 0.0820312 5.34375 -0.28125 C 4.550781 -0.65625 3.875 -1.164062 3.3125 -1.8125 C 2.757812 -2.457031 2.332031 -3.210938 2.03125 -4.078125 C 1.738281 -4.953125 1.59375 -5.90625 1.59375 -6.9375 Z M 4.015625 -6.9375 C 4.015625 -6.226562 4.097656 -5.554688 4.265625 -4.921875 C 4.429688 -4.296875 4.679688 -3.742188 5.015625 -3.265625 C 5.359375 -2.785156 5.78125 -2.40625 6.28125 -2.125 C 6.789062 -1.84375 7.382812 -1.703125 8.0625 -1.703125 C 8.71875 -1.703125 9.296875 -1.84375 9.796875 -2.125 C 10.304688 -2.40625 10.726562 -2.785156 11.0625 -3.265625 C 11.394531 -3.742188 11.644531 -4.296875 11.8125 -4.921875 C 11.976562 -5.554688 12.0625 -6.226562 12.0625 -6.9375 L 12.0625 -7.21875 C 12.0625 -7.90625 11.972656 -8.566406 11.796875 -9.203125 C 11.628906 -9.835938 11.378906 -10.394531 11.046875 -10.875 C 10.710938 -11.351562 10.289062 -11.734375 9.78125 -12.015625 C 9.28125 -12.296875 8.695312 -12.4375 8.03125 -12.4375 C 7.351562 -12.4375 6.765625 -12.296875 6.265625 -12.015625 C 5.773438 -11.734375 5.359375 -11.351562 5.015625 -10.875 C 4.679688 -10.394531 4.429688 -9.835938 4.265625 -9.203125 C 4.097656 -8.566406 4.015625 -7.90625 4.015625 -7.21875 Z M 4.015625 -6.9375 "/></g></g></g><g fill="#4af0c4" fill-opacity="1"><g transform="translate(747.744558, 330.70673)"><g><path d="M 4.453125 -14.171875 L 4.625 -12.078125 C 5.132812 -12.804688 5.765625 -13.378906 6.515625 -13.796875 C 7.273438 -14.210938 8.113281 -14.425781 9.03125 -14.4375 C 9.78125 -14.4375 10.457031 -14.332031 11.0625 -14.125 C 11.664062 -13.914062 12.179688 -13.585938 12.609375 -13.140625 C 13.035156 -12.691406 13.363281 -12.125 13.59375 -11.4375 C 13.832031 -10.757812 13.953125 -9.945312 13.953125 -9 L 13.953125 0 L 11.53125 0 L 11.53125 -8.953125 C 11.53125 -9.578125 11.457031 -10.109375 11.3125 -10.546875 C 11.175781 -10.984375 10.96875 -11.335938 10.6875 -11.609375 C 10.414062 -11.878906 10.082031 -12.070312 9.6875 -12.1875 C 9.289062 -12.3125 8.832031 -12.375 8.3125 -12.375 C 7.5 -12.375 6.785156 -12.171875 6.171875 -11.765625 C 5.554688 -11.359375 5.066406 -10.828125 4.703125 -10.171875 L 4.703125 0 L 2.28125 0 L 2.28125 -14.171875 Z M 4.453125 -14.171875 "/></g></g></g><g fill="#ffffff" fill-opacity="1"><g transform="translate(368.213488, 393.383088)"><g><path d="M 8.78125 -14.90625 L 10.703125 -14.90625 L 10.703125 -4.53125 C 10.691406 -3.84375 10.5625 -3.207031 10.3125 -2.625 C 10.0625 -2.050781 9.722656 -1.550781 9.296875 -1.125 C 8.867188 -0.707031 8.363281 -0.378906 7.78125 -0.140625 C 7.195312 0.0859375 6.554688 0.203125 5.859375 0.203125 C 5.171875 0.203125 4.539062 0.0976562 3.96875 -0.109375 C 3.394531 -0.328125 2.898438 -0.628906 2.484375 -1.015625 C 2.066406 -1.410156 1.726562 -1.882812 1.46875 -2.4375 C 1.21875 -3 1.0625 -3.625 1 -4.3125 L 2.921875 -4.3125 C 2.941406 -3.894531 3.023438 -3.507812 3.171875 -3.15625 C 3.328125 -2.800781 3.53125 -2.488281 3.78125 -2.21875 C 4.03125 -1.957031 4.332031 -1.753906 4.6875 -1.609375 C 5.039062 -1.472656 5.429688 -1.40625 5.859375 -1.40625 C 6.316406 -1.40625 6.722656 -1.488281 7.078125 -1.65625 C 7.429688 -1.820312 7.734375 -2.046875 7.984375 -2.328125 C 8.234375 -2.617188 8.421875 -2.953125 8.546875 -3.328125 C 8.679688 -3.710938 8.757812 -4.113281 8.78125 -4.53125 Z M 8.78125 -14.90625 "/></g></g></g><g fill="#ffffff" fill-opacity="1"><g transform="translate(380.795197, 393.383088)"><g><path d="M 1.25 -5.640625 C 1.25 -6.441406 1.363281 -7.179688 1.59375 -7.859375 C 1.832031 -8.546875 2.164062 -9.140625 2.59375 -9.640625 C 3.03125 -10.148438 3.554688 -10.550781 4.171875 -10.84375 C 4.796875 -11.132812 5.5 -11.28125 6.28125 -11.28125 C 7.0625 -11.28125 7.765625 -11.132812 8.390625 -10.84375 C 9.015625 -10.550781 9.539062 -10.148438 9.96875 -9.640625 C 10.40625 -9.140625 10.738281 -8.546875 10.96875 -7.859375 C 11.207031 -7.179688 11.328125 -6.441406 11.328125 -5.640625 L 11.328125 -5.421875 C 11.328125 -4.617188 11.207031 -3.875 10.96875 -3.1875 C 10.738281 -2.507812 10.40625 -1.914062 9.96875 -1.40625 C 9.539062 -0.90625 9.015625 -0.507812 8.390625 -0.21875 C 7.773438 0.0625 7.078125 0.203125 6.296875 0.203125 C 5.515625 0.203125 4.8125 0.0625 4.1875 -0.21875 C 3.5625 -0.507812 3.03125 -0.90625 2.59375 -1.40625 C 2.164062 -1.914062 1.832031 -2.507812 1.59375 -3.1875 C 1.363281 -3.875 1.25 -4.617188 1.25 -5.421875 Z M 3.140625 -5.421875 C 3.140625 -4.867188 3.203125 -4.34375 3.328125 -3.84375 C 3.460938 -3.351562 3.660156 -2.921875 3.921875 -2.546875 C 4.191406 -2.171875 4.523438 -1.875 4.921875 -1.65625 C 5.316406 -1.4375 5.773438 -1.328125 6.296875 -1.328125 C 6.816406 -1.328125 7.269531 -1.4375 7.65625 -1.65625 C 8.050781 -1.875 8.378906 -2.171875 8.640625 -2.546875 C 8.910156 -2.921875 9.109375 -3.351562 9.234375 -3.84375 C 9.367188 -4.34375 9.4375 -4.867188 9.4375 -5.421875 L 9.4375 -5.640625 C 9.4375 -6.179688 9.367188 -6.695312 9.234375 -7.1875 C 9.097656 -7.6875 8.894531 -8.125 8.625 -8.5 C 8.363281 -8.875 8.035156 -9.171875 7.640625 -9.390625 C 7.253906 -9.617188 6.800781 -9.734375 6.28125 -9.734375 C 5.75 -9.734375 5.289062 -9.617188 4.90625 -9.390625 C 4.519531 -9.171875 4.191406 -8.875 3.921875 -8.5 C 3.660156 -8.125 3.460938 -7.6875 3.328125 -7.1875 C 3.203125 -6.695312 3.140625 -6.179688 3.140625 -5.640625 Z M 3.140625 -5.421875 "/></g></g></g><g fill="#ffffff" fill-opacity="1"><g transform="translate(393.376905, 393.383088)"><g><path d="M 2.078125 -11.078125 L 7.734375 -11.078125 L 7.734375 -1.640625 L 11.359375 -1.640625 L 11.359375 0 L 2.078125 0 L 2.078125 -1.640625 L 5.84375 -1.640625 L 5.84375 -9.4375 L 2.078125 -9.4375 Z M 5.59375 -13.984375 C 5.59375 -14.296875 5.6875 -14.5625 5.875 -14.78125 C 6.0625 -15 6.347656 -15.109375 6.734375 -15.109375 C 7.109375 -15.109375 7.390625 -15 7.578125 -14.78125 C 7.773438 -14.5625 7.875 -14.296875 7.875 -13.984375 C 7.875 -13.679688 7.773438 -13.425781 7.578125 -13.21875 C 7.390625 -13.007812 7.109375 -12.90625 6.734375 -12.90625 C 6.347656 -12.90625 6.0625 -13.007812 5.875 -13.21875 C 5.6875 -13.425781 5.59375 -13.679688 5.59375 -13.984375 Z M 5.59375 -13.984375 "/></g></g></g><g fill="#ffffff" fill-opacity="1"><g transform="translate(405.958614, 393.383088)"><g><path d="M 3.484375 -11.078125 L 3.609375 -9.4375 C 4.015625 -10.007812 4.507812 -10.457031 5.09375 -10.78125 C 5.6875 -11.101562 6.34375 -11.269531 7.0625 -11.28125 C 7.644531 -11.28125 8.171875 -11.195312 8.640625 -11.03125 C 9.117188 -10.875 9.523438 -10.617188 9.859375 -10.265625 C 10.191406 -9.921875 10.445312 -9.476562 10.625 -8.9375 C 10.8125 -8.40625 10.90625 -7.769531 10.90625 -7.03125 L 10.90625 0 L 9.015625 0 L 9.015625 -7 C 9.015625 -7.488281 8.957031 -7.898438 8.84375 -8.234375 C 8.738281 -8.578125 8.578125 -8.851562 8.359375 -9.0625 C 8.140625 -9.28125 7.875 -9.4375 7.5625 -9.53125 C 7.257812 -9.625 6.90625 -9.671875 6.5 -9.671875 C 5.863281 -9.671875 5.304688 -9.507812 4.828125 -9.1875 C 4.347656 -8.875 3.960938 -8.457031 3.671875 -7.9375 L 3.671875 0 L 1.78125 0 L 1.78125 -11.078125 Z M 3.484375 -11.078125 "/></g></g></g><g fill="#ffffff" fill-opacity="1"><g transform="translate(418.540323, 393.383088)"><g/></g></g><g fill="#ffffff" fill-opacity="1"><g transform="translate(431.122032, 393.383088)"><g><path d="M 9.171875 -4.03125 L 10.3125 -14.90625 L 12.109375 -14.90625 L 10.296875 0 L 8.359375 0 L 6.4375 -11.234375 L 4.5 0 L 2.5625 0 L 0.75 -14.90625 L 2.546875 -14.90625 L 3.6875 -4.03125 L 5.59375 -14.90625 L 7.25 -14.90625 Z M 9.171875 -4.03125 "/></g></g></g><g fill="#ffffff" fill-opacity="1"><g transform="translate(443.703741, 393.383088)"><g><path d="M 9.0625 0 C 8.988281 -0.144531 8.925781 -0.320312 8.875 -0.53125 C 8.832031 -0.75 8.800781 -0.972656 8.78125 -1.203125 C 8.59375 -1.015625 8.378906 -0.832031 8.140625 -0.65625 C 7.910156 -0.488281 7.648438 -0.335938 7.359375 -0.203125 C 7.078125 -0.078125 6.773438 0.0195312 6.453125 0.09375 C 6.140625 0.164062 5.800781 0.203125 5.4375 0.203125 C 4.851562 0.203125 4.320312 0.117188 3.84375 -0.046875 C 3.375 -0.222656 2.972656 -0.453125 2.640625 -0.734375 C 2.304688 -1.023438 2.046875 -1.367188 1.859375 -1.765625 C 1.679688 -2.171875 1.59375 -2.609375 1.59375 -3.078125 C 1.59375 -3.679688 1.710938 -4.210938 1.953125 -4.671875 C 2.203125 -5.128906 2.546875 -5.507812 2.984375 -5.8125 C 3.429688 -6.113281 3.96875 -6.335938 4.59375 -6.484375 C 5.21875 -6.640625 5.914062 -6.71875 6.6875 -6.71875 L 8.75 -6.71875 L 8.75 -7.59375 C 8.75 -7.925781 8.6875 -8.222656 8.5625 -8.484375 C 8.445312 -8.753906 8.273438 -8.984375 8.046875 -9.171875 C 7.816406 -9.359375 7.539062 -9.5 7.21875 -9.59375 C 6.894531 -9.695312 6.535156 -9.75 6.140625 -9.75 C 5.753906 -9.75 5.410156 -9.703125 5.109375 -9.609375 C 4.816406 -9.515625 4.566406 -9.390625 4.359375 -9.234375 C 4.160156 -9.078125 4.003906 -8.890625 3.890625 -8.671875 C 3.785156 -8.460938 3.734375 -8.238281 3.734375 -8 L 1.828125 -8 C 1.828125 -8.40625 1.925781 -8.800781 2.125 -9.1875 C 2.332031 -9.582031 2.625 -9.929688 3 -10.234375 C 3.382812 -10.546875 3.847656 -10.796875 4.390625 -10.984375 C 4.929688 -11.179688 5.546875 -11.28125 6.234375 -11.28125 C 6.859375 -11.28125 7.441406 -11.203125 7.984375 -11.046875 C 8.523438 -10.898438 8.988281 -10.671875 9.375 -10.359375 C 9.769531 -10.046875 10.078125 -9.65625 10.296875 -9.1875 C 10.523438 -8.726562 10.640625 -8.1875 10.640625 -7.5625 L 10.640625 -2.421875 C 10.640625 -2.046875 10.675781 -1.648438 10.75 -1.234375 C 10.820312 -0.828125 10.914062 -0.46875 11.03125 -0.15625 L 11.03125 0 Z M 5.71875 -1.4375 C 6.082031 -1.4375 6.425781 -1.484375 6.75 -1.578125 C 7.070312 -1.679688 7.363281 -1.8125 7.625 -1.96875 C 7.882812 -2.125 8.109375 -2.300781 8.296875 -2.5 C 8.492188 -2.707031 8.644531 -2.921875 8.75 -3.140625 L 8.75 -5.375 L 7 -5.375 C 5.882812 -5.375 5.019531 -5.207031 4.40625 -4.875 C 3.789062 -4.550781 3.484375 -4.039062 3.484375 -3.34375 C 3.484375 -3.0625 3.53125 -2.804688 3.625 -2.578125 C 3.71875 -2.347656 3.859375 -2.148438 4.046875 -1.984375 C 4.234375 -1.816406 4.460938 -1.679688 4.734375 -1.578125 C 5.015625 -1.484375 5.34375 -1.4375 5.71875 -1.4375 Z M 5.71875 -1.4375 "/></g></g></g><g fill="#ffffff" fill-opacity="1"><g transform="translate(456.28545, 393.383088)"><g><path d="M 2.078125 -11.078125 L 7.734375 -11.078125 L 7.734375 -1.640625 L 11.359375 -1.640625 L 11.359375 0 L 2.078125 0 L 2.078125 -1.640625 L 5.84375 -1.640625 L 5.84375 -9.4375 L 2.078125 -9.4375 Z M 5.59375 -13.984375 C 5.59375 -14.296875 5.6875 -14.5625 5.875 -14.78125 C 6.0625 -15 6.347656 -15.109375 6.734375 -15.109375 C 7.109375 -15.109375 7.390625 -15 7.578125 -14.78125 C 7.773438 -14.5625 7.875 -14.296875 7.875 -13.984375 C 7.875 -13.679688 7.773438 -13.425781 7.578125 -13.21875 C 7.390625 -13.007812 7.109375 -12.90625 6.734375 -12.90625 C 6.347656 -12.90625 6.0625 -13.007812 5.875 -13.21875 C 5.6875 -13.425781 5.59375 -13.679688 5.59375 -13.984375 Z M 5.59375 -13.984375 "/></g></g></g><g fill="#ffffff" fill-opacity="1"><g transform="translate(468.867159, 393.383088)"><g><path d="M 6.265625 -13.765625 L 6.265625 -11.078125 L 10.484375 -11.078125 L 10.484375 -9.609375 L 6.265625 -9.609375 L 6.265625 -3.59375 C 6.265625 -3.164062 6.316406 -2.8125 6.421875 -2.53125 C 6.535156 -2.25 6.6875 -2.023438 6.875 -1.859375 C 7.070312 -1.691406 7.296875 -1.570312 7.546875 -1.5 C 7.796875 -1.4375 8.054688 -1.40625 8.328125 -1.40625 C 8.535156 -1.40625 8.75 -1.414062 8.96875 -1.4375 C 9.1875 -1.457031 9.398438 -1.484375 9.609375 -1.515625 C 9.816406 -1.554688 10.007812 -1.59375 10.1875 -1.625 C 10.375 -1.664062 10.523438 -1.703125 10.640625 -1.734375 L 10.90625 -0.390625 C 10.75 -0.296875 10.554688 -0.210938 10.328125 -0.140625 C 10.109375 -0.0664062 9.863281 -0.00390625 9.59375 0.046875 C 9.320312 0.0976562 9.035156 0.132812 8.734375 0.15625 C 8.441406 0.1875 8.148438 0.203125 7.859375 0.203125 C 7.367188 0.203125 6.910156 0.132812 6.484375 0 C 6.054688 -0.144531 5.6875 -0.367188 5.375 -0.671875 C 5.0625 -0.972656 4.8125 -1.363281 4.625 -1.84375 C 4.445312 -2.320312 4.359375 -2.90625 4.359375 -3.59375 L 4.359375 -9.609375 L 1.453125 -9.609375 L 1.453125 -11.078125 L 4.359375 -11.078125 L 4.359375 -13.765625 Z M 6.265625 -13.765625 "/></g></g></g><g fill="#ffffff" fill-opacity="1"><g transform="translate(481.448867, 393.383088)"><g><path d="M 2.078125 -15.734375 L 7.734375 -15.734375 L 7.734375 -1.640625 L 11.359375 -1.640625 L 11.359375 0 L 2.078125 0 L 2.078125 -1.640625 L 5.84375 -1.640625 L 5.84375 -14.078125 L 2.078125 -14.078125 Z M 2.078125 -15.734375 "/></g></g></g><g fill="#ffffff" fill-opacity="1"><g transform="translate(494.030576, 393.383088)"><g><path d="M 2.078125 -11.078125 L 7.734375 -11.078125 L 7.734375 -1.640625 L 11.359375 -1.640625 L 11.359375 0 L 2.078125 0 L 2.078125 -1.640625 L 5.84375 -1.640625 L 5.84375 -9.4375 L 2.078125 -9.4375 Z M 5.59375 -13.984375 C 5.59375 -14.296875 5.6875 -14.5625 5.875 -14.78125 C 6.0625 -15 6.347656 -15.109375 6.734375 -15.109375 C 7.109375 -15.109375 7.390625 -15 7.578125 -14.78125 C 7.773438 -14.5625 7.875 -14.296875 7.875 -13.984375 C 7.875 -13.679688 7.773438 -13.425781 7.578125 -13.21875 C 7.390625 -13.007812 7.109375 -12.90625 6.734375 -12.90625 C 6.347656 -12.90625 6.0625 -13.007812 5.875 -13.21875 C 5.6875 -13.425781 5.59375 -13.679688 5.59375 -13.984375 Z M 5.59375 -13.984375 "/></g></g></g><g fill="#ffffff" fill-opacity="1"><g transform="translate(506.612285, 393.383088)"><g><path d="M 9.140625 -2.9375 C 9.140625 -3.164062 9.09375 -3.367188 9 -3.546875 C 8.914062 -3.722656 8.765625 -3.882812 8.546875 -4.03125 C 8.335938 -4.1875 8.0625 -4.328125 7.71875 -4.453125 C 7.375 -4.578125 6.941406 -4.691406 6.421875 -4.796875 C 5.785156 -4.929688 5.207031 -5.085938 4.6875 -5.265625 C 4.164062 -5.453125 3.71875 -5.671875 3.34375 -5.921875 C 2.96875 -6.179688 2.675781 -6.484375 2.46875 -6.828125 C 2.269531 -7.171875 2.171875 -7.570312 2.171875 -8.03125 C 2.171875 -8.488281 2.273438 -8.910156 2.484375 -9.296875 C 2.703125 -9.691406 3 -10.035156 3.375 -10.328125 C 3.757812 -10.617188 4.21875 -10.847656 4.75 -11.015625 C 5.28125 -11.191406 5.859375 -11.28125 6.484375 -11.28125 C 7.171875 -11.28125 7.785156 -11.191406 8.328125 -11.015625 C 8.878906 -10.835938 9.34375 -10.59375 9.71875 -10.28125 C 10.101562 -9.96875 10.398438 -9.597656 10.609375 -9.171875 C 10.816406 -8.753906 10.921875 -8.304688 10.921875 -7.828125 L 9.03125 -7.828125 C 9.03125 -8.066406 8.96875 -8.296875 8.84375 -8.515625 C 8.71875 -8.742188 8.546875 -8.945312 8.328125 -9.125 C 8.109375 -9.3125 7.84375 -9.457031 7.53125 -9.5625 C 7.226562 -9.675781 6.878906 -9.734375 6.484375 -9.734375 C 6.085938 -9.734375 5.734375 -9.6875 5.421875 -9.59375 C 5.117188 -9.5 4.867188 -9.378906 4.671875 -9.234375 C 4.472656 -9.085938 4.320312 -8.914062 4.21875 -8.71875 C 4.113281 -8.519531 4.0625 -8.3125 4.0625 -8.09375 C 4.0625 -7.875 4.101562 -7.679688 4.1875 -7.515625 C 4.269531 -7.347656 4.410156 -7.191406 4.609375 -7.046875 C 4.816406 -6.910156 5.085938 -6.785156 5.421875 -6.671875 C 5.753906 -6.566406 6.179688 -6.46875 6.703125 -6.375 C 7.390625 -6.226562 8 -6.0625 8.53125 -5.875 C 9.070312 -5.6875 9.523438 -5.457031 9.890625 -5.1875 C 10.265625 -4.925781 10.546875 -4.617188 10.734375 -4.265625 C 10.929688 -3.921875 11.03125 -3.523438 11.03125 -3.078125 C 11.03125 -2.578125 10.921875 -2.125 10.703125 -1.71875 C 10.484375 -1.320312 10.175781 -0.976562 9.78125 -0.6875 C 9.382812 -0.40625 8.910156 -0.1875 8.359375 -0.03125 C 7.804688 0.125 7.203125 0.203125 6.546875 0.203125 C 5.796875 0.203125 5.125 0.101562 4.53125 -0.09375 C 3.945312 -0.300781 3.453125 -0.566406 3.046875 -0.890625 C 2.640625 -1.222656 2.328125 -1.609375 2.109375 -2.046875 C 1.898438 -2.484375 1.796875 -2.9375 1.796875 -3.40625 L 3.6875 -3.40625 C 3.71875 -3.019531 3.820312 -2.691406 4 -2.421875 C 4.175781 -2.160156 4.398438 -1.945312 4.671875 -1.78125 C 4.941406 -1.613281 5.238281 -1.492188 5.5625 -1.421875 C 5.894531 -1.359375 6.222656 -1.328125 6.546875 -1.328125 C 7.335938 -1.328125 7.96875 -1.472656 8.4375 -1.765625 C 8.90625 -2.066406 9.140625 -2.457031 9.140625 -2.9375 Z M 9.140625 -2.9375 "/></g></g></g><g fill="#ffffff" fill-opacity="1"><g transform="translate(519.193994, 393.383088)"><g><path d="M 6.265625 -13.765625 L 6.265625 -11.078125 L 10.484375 -11.078125 L 10.484375 -9.609375 L 6.265625 -9.609375 L 6.265625 -3.59375 C 6.265625 -3.164062 6.316406 -2.8125 6.421875 -2.53125 C 6.535156 -2.25 6.6875 -2.023438 6.875 -1.859375 C 7.070312 -1.691406 7.296875 -1.570312 7.546875 -1.5 C 7.796875 -1.4375 8.054688 -1.40625 8.328125 -1.40625 C 8.535156 -1.40625 8.75 -1.414062 8.96875 -1.4375 C 9.1875 -1.457031 9.398438 -1.484375 9.609375 -1.515625 C 9.816406 -1.554688 10.007812 -1.59375 10.1875 -1.625 C 10.375 -1.664062 10.523438 -1.703125 10.640625 -1.734375 L 10.90625 -0.390625 C 10.75 -0.296875 10.554688 -0.210938 10.328125 -0.140625 C 10.109375 -0.0664062 9.863281 -0.00390625 9.59375 0.046875 C 9.320312 0.0976562 9.035156 0.132812 8.734375 0.15625 C 8.441406 0.1875 8.148438 0.203125 7.859375 0.203125 C 7.367188 0.203125 6.910156 0.132812 6.484375 0 C 6.054688 -0.144531 5.6875 -0.367188 5.375 -0.671875 C 5.0625 -0.972656 4.8125 -1.363281 4.625 -1.84375 C 4.445312 -2.320312 4.359375 -2.90625 4.359375 -3.59375 L 4.359375 -9.609375 L 1.453125 -9.609375 L 1.453125 -11.078125 L 4.359375 -11.078125 L 4.359375 -13.765625 Z M 6.265625 -13.765625 "/></g></g></g></svg>